<?xml version="1.0" standalone="no"?>
<!DOCTYPE svg PUBLIC "-//W3C//DTD SVG 20010904//EN"
 "http://www.w3.org/TR/2001/REC-SVG-20010904/DTD/svg10.dtd">
<svg version="1.0" xmlns="http://www.w3.org/2000/svg"
 width="512.000000pt" height="512.000000pt" viewBox="0 0 512.000000 512.000000"
 preserveAspectRatio="xMidYMid meet">
<metadata>
Created by potrace 1.14, written by Peter Selinger 2001-2017
</metadata>
<g transform="translate(0.000000,512.000000) scale(0.100000,-0.100000)"
fill="#000000" stroke="none">
<path d="M2479 4665 c0 -22 -2 -62 -4 -90 -11 -203 -18 -339 -20 -390 -12
-267 -17 -365 -20 -395 -2 -19 -6 -103 -10 -185 -9 -194 -11 -224 -16 -230 -8
-7 -140 23 -224 52 -354 121 -651 365 -1038 853 -17 21 -117 163 -169 240 -24
36 -50 64 -57 62 -7 -1 -63 -16 -124 -33 -62 -17 -116 -32 -122 -33 -69 -13
-235 -63 -235 -70 0 -13 87 -155 169 -276 338 -499 770 -851 1258 -1024 145
-51 356 -98 524 -115 4 -1 5 -16 4 -33 -2 -18 -6 -94 -10 -168 -3 -74 -8 -169
-10 -210 -3 -41 -7 -124 -10 -185 -5 -132 -16 -309 -19 -312 -3 -3 -48 -9
-131 -18 -32 -4 -66 -8 -75 -10 -8 -1 -37 -6 -65 -9 -27 -4 -57 -9 -65 -11 -8
-2 -33 -6 -55 -10 -226 -33 -563 -144 -797 -261 -481 -241 -838 -644 -1027
-1157 -20 -54 -20 -58 -4 -54 10 3 62 13 117 23 l98 18 76 91 c187 222 423
456 608 603 71 57 257 175 349 221 89 44 297 122 365 135 134 26 185 35 250
41 108 11 146 14 243 21 l99 6 -7 -103 c-7 -126 -12 -211 -20 -394 -4 -77 -8
-160 -10 -185 -2 -25 -5 -80 -6 -123 l-2 -78 69 -72 c38 -40 99 -103 136 -142
l68 -70 1 40 c0 22 2 114 4 205 2 91 6 318 10 505 9 461 6 420 30 420 35 1
167 -25 260 -51 267 -74 542 -216 815 -422 69 -52 127 -98 130 -101 3 -3 34
-31 70 -61 155 -130 375 -353 559 -566 l44 -51 125 54 c69 29 149 65 179 78
29 14 56 25 58 25 2 0 29 11 59 25 30 14 67 30 81 35 26 10 26 10 -67 101
-704 688 -1149 1005 -1650 1175 -54 19 -109 36 -121 39 -12 2 -62 14 -110 25
-48 11 -105 23 -125 26 -20 3 -44 7 -52 9 -8 2 -44 7 -80 11 -36 4 -76 8 -90
9 -14 2 -42 3 -63 4 l-37 1 6 263 c3 144 7 341 9 437 2 96 4 182 4 191 1 9 10
15 24 15 126 3 349 34 480 68 71 19 263 83 307 103 212 96 357 180 518 303
129 98 153 118 263 225 189 183 383 417 550 665 35 52 67 97 70 100 3 3 11 15
17 26 10 20 0 18 -141 -24 -84 -24 -171 -49 -195 -55 -39 -10 -51 -21 -124
-116 -388 -507 -822 -817 -1303 -931 -123 -30 -196 -39 -330 -41 -145 -2 -132
-10 -129 72 1 39 5 233 9 432 4 199 8 435 10 524 l3 161 -78 84 -79 83 -2 -40z"/>
</g>
</svg>
